# xmcd CD database file
#
# Track frame offsets:
#	150
#	10341
#	24373
#	35327
#	47406
#	61211
#	73239
#	84357
#	97805
#	109167
#	122561
#	132951
#	142967
#	154982
#	167837
#	179298
#	196217
#	204199
#	216309
#	231592
#	243496
#	254466
#	265089
#	280211
#	293193
#
# Disc length: 4062 seconds
#
# Revision: 1
# Processed by: cddbd v1.5.2PL0 Copyright (c) Steve Scherf et al.
# Submitted via: CDex 1.70beta2
#
DISCID=660fdc19
DTITLE=CG-V2 - Country Greats - Vol.2 - D2
DYEAR=1900
DGENRE=Country
TTITLE0=Abilene - George Hamilton IV
TTITLE1=It Only Hurts For A Little While - Margo Smith
TTITLE2=May The Bird Of Paradise Fly Up Your Nose - Little Jimnmy Dickens
TTITLE3=Satin Sheets - Jeannie Pruett
TTITLE4=Teddy Bear Song - Barbara Fairchild
TTITLE5=A Satified Mind - Porter Wagoner
TTITLE6=Are You Teasing Me - Carl Smith
TTITLE7=B.J. The D.J. - Stonewall Jackson
TTITLE8=Before The Next Teardrop Falls - Freddie Fender
TTITLE9=Big Bad John - Jimmy Dean
TTITLE10=Wake Up, Irene - Hank Thompson
TTITLE11=The Bridge Washed Out - Warner Mack
TTITLE12=Tennessee Bird Walk - Jack Blanchard and Misty Morgan
TTITLE13=Statue Of A Fool - Jack Greene
TTITLE14=Skip A Rope - Henson Cargill
TTITLE15=For The Good Times- Ray Price
TTITLE16=Blue Blue Day - Don Gibson
TTITLE17=How Can I Unlove You - Lynn Anderson
TTITLE18=Country Bumpkin - Carl Smith
TTITLE19=Funny Face - Donna Fargo
TTITLE20=Oh, Lonesome Me - Don Gibson
TTITLE21=Heartbreak U.S.A. - Kitty Wells
TTITLE22=No Charge - Melba Montgomery
TTITLE23=My Special Angel - Bobby Helms
TTITLE24=Until My Dreams Come True - Jack Greene
EXTD=
EXTT0=
EXTT1=
EXTT2=
EXTT3=
EXTT4=
EXTT5=
EXTT6=
EXTT7=
EXTT8=
EXTT9=
EXTT10=
EXTT11=
EXTT12=
EXTT13=
EXTT14=
EXTT15=
EXTT16=
EXTT17=
EXTT18=
EXTT19=
EXTT20=
EXTT21=
EXTT22=
EXTT23=
EXTT24=
PLAYORDER=
